<svg viewBox="11.96 -1.424 60.234 60.203" width="60.234px" height="60.203px" xmlns="http://www.w3.org/2000/svg">
  <rect x="-2.741" width="48" height="48" rx="9.49" ry="9.49" style="" y="11.389" transform="matrix(0.7071070075035095, 0.7071070075035095, -0.7071070075035095, 0.7071070075035095, 51.995887756347656, -11.362069129943848)"/>
  <rect x="38.541" y="29.161" width="0.107" height="0.357" rx="9" ry="9" transform="matrix(1, 0, 0, 1, -3.773293972015381, 0.144570991396904)"/>
  <rect x="37.567" y="28.053" width="0.065" height="0.239" rx="9" ry="9" transform="matrix(1, 0, 0, 1, -3.773293972015381, 0.144570991396904)"/>
  <path d="M 38.246 47.548 L 32.229 47.548 L 32.229 28.445 L 18.334 17.379 L 18.334 9.883 L 35.44 23.319 L 52.489 9.883 L 52.489 17.379 L 38.246 28.721 C 38.246 30.958 38.246 33.525 38.246 36.429 C 38.246 39.33 38.246 41.909 38.246 44.161 C 38.246 46.418 38.246 47.548 38.246 47.548 Z M 57.651 47.495 L 57.651 21.782 L 64.072 21.782 C 64.072 21.782 64.031 21.865 63.945 22.028 C 63.864 22.191 63.787 22.476 63.718 22.883 C 63.651 23.287 63.619 23.839 63.619 24.538 C 63.619 24.902 63.619 26.278 63.619 28.668 C 63.619 31.051 63.619 33.685 63.619 36.565 C 63.619 39.448 63.619 41.989 63.619 44.19 C 63.619 46.393 63.619 47.495 63.619 47.495 L 57.651 47.495 Z M 63.667 15.725 L 57.604 15.725 L 57.604 10.432 L 63.667 10.432 L 63.667 15.725 Z" style="fill: rgb(255, 255, 255);" transform="matrix(1, 0, 0, 1, 4.440892098500626e-16, 0)"/>
</svg>
