<svg width="31px" height="31px" viewBox="0 0 31 31" version="1.1" xmlns="http://www.w3.org/2000/svg" xmlns:xlink="http://www.w3.org/1999/xlink">
	<g id="Page-1" stroke="none" stroke-width="1" fill="none" fill-rule="evenodd">
		<g id="logo" transform="translate(0.900000, 0.700000)" fill-rule="nonzero">
			<g id="Group">
				<path d="M7.69525268,23.3614089 C6.15620214,23.3614089 4.89280245,22.0980092 4.89280245,20.5589587 L4.89280245,9.57886677 L4.77794793,9.69372129 C3.67534456,10.7963247 1.90658499,10.7963247 0.826952527,9.69372129 C-0.275650842,8.59111792 -0.275650842,6.82235835 0.826952527,5.74272588 L5.74272588,0.826952527 C6.5467075,0.0229709035 7.74119449,-0.206738132 8.79785605,0.229709035 C9.85451761,0.666156202 10.5206738,1.67687596 10.5206738,2.82542113 L10.5206738,20.5819296 C10.4977029,22.0980092 9.23430322,23.3614089 7.69525268,23.3614089 Z" id="Path" fill="#ED8C22"></path>
				<path d="M17.5038285,30 C15.9647779,30 14.7013783,28.7366003 14.7013783,27.1975498 L14.7013783,9.44104135 C14.7013783,7.90199081 15.9647779,6.63859112 17.5038285,6.63859112 C19.042879,6.63859112 20.3062787,7.90199081 20.3062787,9.44104135 L20.3062787,27.1975498 C20.3062787,28.7366003 19.042879,30 17.5038285,30 Z" id="Path" fill="#5F63AC"></path>
				<path d="M27.3124043,23.3614089 C25.7733538,23.3614089 24.5099541,22.0980092 24.5099541,20.5589587 L24.5099541,2.80245023 C24.5099541,1.26339969 25.7733538,0 27.3124043,0 C28.8514548,0 30.1148545,1.26339969 30.1148545,2.80245023 L30.1148545,20.5589587 C30.1148545,22.0980092 28.8744257,23.3614089 27.3124043,23.3614089 Z" id="Path" fill="#48BEE2"></path>
			</g>
		</g>
	</g>
</svg>
